<?xml version="1.0" encoding="utf-8"?>
<!-- Generator: Adobe Illustrator 25.0.1, SVG Export Plug-In . SVG Version: 6.00 Build 0)  -->
<svg version="1.1" id="Layer_1" xmlns="http://www.w3.org/2000/svg" xmlns:xlink="http://www.w3.org/1999/xlink" x="0px" y="0px"
	 viewBox="0 0 1792 1112" style="enable-background:new 0 0 1792 1112;" xml:space="preserve">
<style type="text/css">
	.st0{fill-rule:evenodd;clip-rule:evenodd;fill:none;}
	.st1{fill-rule:evenodd;clip-rule:evenodd;fill:#ACB2DA;}
	.st2{fill:#C92F2F;}
	.st3{fill:#49301C;}
	.st4{fill:#FFFFFF;}
	.st5{fill-rule:evenodd;clip-rule:evenodd;fill:#484747;}
	.st6{fill-rule:evenodd;clip-rule:evenodd;fill:url(#New_Pattern);}
	.st7{opacity:0.2;fill-rule:evenodd;clip-rule:evenodd;fill:url(#SVGID_1_);}
</style>
<pattern  y="1112" width="243.4" height="245.7" patternUnits="userSpaceOnUse" id="New_Pattern" viewBox="123.3 -307.6 243.4 245.7" style="overflow:visible;">
	<g>
		<rect x="123.3" y="-307.6" class="st0" width="243.4" height="245.7"/>
		<g>
			<rect x="366.3" y="-123.8" class="st1" width="123.8" height="123.8"/>
		</g>
		<g>
			<rect x="122.8" y="-123.8" class="st1" width="123.8" height="123.8"/>
			<g>
				<g>
					<path class="st2" d="M144.3-61.9c0,22.3,18.1,40.4,40.4,40.4c22.3,0,40.4-18.1,40.4-40.4c0-22.3-18.1-40.4-40.4-40.4
						C162.4-102.3,144.3-84.2,144.3-61.9z"/>
					<path class="st3" d="M143-61.9c0.2,23.4,19.7,42.3,43.2,41.7c23.4-0.6,41.6-21.5,40.2-44.6c-1.4-22.3-21-39.4-43.1-38.8
						C161-103,143.2-83.9,143-61.9c0,1.7,2.6,1.7,2.6,0c0.1-12.1,5.6-23.2,15-30.8c9.5-7.7,22.6-10,34.3-7
						c11.5,3,20.8,11.4,25.7,22.1c5.1,11.2,4.1,24.5-1.8,35.1c-8.7,15.5-27.2,22.8-44.2,18.4c-17-4.4-28.8-20.4-29-37.8
						C145.6-63.6,143-63.6,143-61.9z"/>
				</g>
				<g>
					<path class="st4" d="M225.2-63.5c-0.9-21.6-18.6-38.8-40.4-38.8c-21.8,0-39.5,17.2-40.4,38.8H225.2z"/>
					<path class="st3" d="M226.4-63.5c-1.1-22.2-19.4-39.9-41.7-40.1c-22.3-0.2-40.6,18.2-41.7,40.1c0,0.7,0.6,1.3,1.3,1.3
						c25.3,0,50.6,0,75.9,0c1.6,0,3.2,0,4.8,0c1.7,0,1.7-2.6,0-2.6c-25.3,0-50.6,0-75.9,0c-1.6,0-3.2,0-4.8,0
						c0.4,0.4,0.9,0.9,1.3,1.3c1-20.8,18.3-37.3,39.1-37.5c20.8-0.2,38.1,17,39.1,37.5C223.9-61.9,226.5-61.9,226.4-63.5z"/>
				</g>
				<rect x="144.3" y="-63.5" class="st3" width="80.8" height="1.6"/>
				<g>
					<path class="st4" d="M174-64.1c0,5.9,4.8,10.7,10.7,10.7c5.9,0,10.7-4.8,10.7-10.7c0-5.9-4.8-10.7-10.7-10.7
						C178.8-74.8,174-70,174-64.1z"/>
					<path class="st3" d="M172.7-64.1c0.2,6.7,5.3,11.8,12,12c6.7,0.2,11.8-5.7,12-12c0.2-6.7-5.7-11.8-12-12
						C178.1-76.3,172.9-70.5,172.7-64.1c-0.1,1.7,2.5,1.7,2.6,0c0.2-5.3,4.2-9.3,9.5-9.5c5.3-0.2,9.3,4.4,9.5,9.5
						c0.2,5.3-4.4,9.3-9.5,9.5c-5.3,0.2-9.3-4.4-9.5-9.5C175.3-65.7,172.7-65.7,172.7-64.1z"/>
				</g>
				<path class="st3" d="M178.5-64.1c0,3.4,2.8,6.2,6.2,6.2c3.4,0,6.2-2.8,6.2-6.2c0-3.4-2.8-6.2-6.2-6.2
					C181.3-70.3,178.5-67.5,178.5-64.1z"/>
			</g>
			<rect x="243.4" y="-123.8" class="st1" width="123.8" height="123.8"/>
			<g>
				<g>
					
						<ellipse transform="matrix(1.313638e-02 -0.9999 0.9999 1.313638e-02 363.256 244.2138)" class="st2" cx="305.3" cy="-61.9" rx="40.4" ry="40.4"/>
					<path class="st3" d="M347.1-61.9c-0.2-23.4-19.7-42.3-43.2-41.7c-23.4,0.6-41.6,21.5-40.2,44.6c1.4,22.3,21,39.4,43.1,38.8
						C329.1-20.8,346.9-39.9,347.1-61.9c0-1.7-2.6-1.7-2.6,0c-0.1,12.1-5.6,23.2-15,30.8c-9.5,7.7-22.6,10-34.3,7
						c-11.5-3-20.8-11.4-25.7-22.1c-5.1-11.2-4.1-24.5,1.8-35.1c8.7-15.5,27.2-22.8,44.2-18.4c17,4.4,28.8,20.4,29,37.8
						C344.5-60.3,347.1-60.3,347.1-61.9z"/>
				</g>
				<rect x="265" y="-61.9" class="st3" width="80.8" height="1.6"/>
				<g>
					<path class="st4" d="M316.1-59.8c0-5.9-4.8-10.7-10.7-10.7c-5.9,0-10.7,4.8-10.7,10.7c0,5.9,4.8,10.7,10.7,10.7
						C311.3-49,316.1-53.8,316.1-59.8z"/>
					<path class="st3" d="M317.4-59.8c-0.2-6.7-5.3-11.8-12-12c-6.7-0.2-11.8,5.7-12,12c-0.2,6.7,5.7,11.8,12,12
						C312.1-47.5,317.2-53.4,317.4-59.8c0.1-1.7-2.5-1.7-2.6,0c-0.2,5.3-4.2,9.3-9.5,9.5c-5.3,0.2-9.3-4.4-9.5-9.5
						c-0.2-5.3,4.4-9.3,9.5-9.5c5.3-0.2,9.3,4.4,9.5,9.5C314.9-58.1,317.4-58.1,317.4-59.8z"/>
				</g>
				<path class="st3" d="M311.6-59.8c0-3.4-2.8-6.2-6.2-6.2c-3.4,0-6.2,2.8-6.2,6.2c0,3.4,2.8,6.2,6.2,6.2
					C308.8-53.5,311.6-56.3,311.6-59.8z"/>
			</g>
		</g>
		<g>
			<rect x="0" y="-123.8" class="st1" width="123.8" height="123.8"/>
		</g>
		<g>
			<rect x="366.3" y="-246.7" class="st1" width="123.8" height="123.8"/>
		</g>
		<g>
			<rect x="122.8" y="-246.7" class="st1" width="123.8" height="123.8"/>
			<g>
				<g>
					<path class="st2" d="M144.3-184.7c0,22.3,18.1,40.4,40.4,40.4c22.3,0,40.4-18.1,40.4-40.4s-18.1-40.4-40.4-40.4
						C162.4-225.2,144.3-207.1,144.3-184.7z"/>
					<path class="st3" d="M143-184.7c0.2,23.4,19.7,42.3,43.2,41.7c23.4-0.6,41.6-21.5,40.2-44.6c-1.4-22.3-21-39.4-43.1-38.8
						C161-225.8,143.2-206.8,143-184.7c0,1.7,2.6,1.7,2.6,0c0.1-12.1,5.6-23.2,15-30.8c9.5-7.7,22.6-10,34.3-7
						c11.5,3,20.8,11.4,25.7,22.1c5.1,11.2,4.1,24.5-1.8,35.1c-8.7,15.5-27.2,22.8-44.2,18.4c-17-4.4-28.8-20.4-29-37.8
						C145.6-186.4,143-186.4,143-184.7z"/>
				</g>
				<g>
					<path class="st4" d="M225.2-186.4c-0.9-21.6-18.6-38.8-40.4-38.8c-21.8,0-39.5,17.2-40.4,38.8H225.2z"/>
					<path class="st3" d="M226.4-186.4c-1.1-22.2-19.4-39.9-41.7-40.1c-22.3-0.2-40.6,18.2-41.7,40.1c0,0.7,0.6,1.3,1.3,1.3
						c25.3,0,50.6,0,75.9,0c1.6,0,3.2,0,4.8,0c1.7,0,1.7-2.6,0-2.6c-25.3,0-50.6,0-75.9,0c-1.6,0-3.2,0-4.8,0
						c0.4,0.4,0.9,0.9,1.3,1.3c1-20.8,18.3-37.3,39.1-37.5c20.8-0.2,38.1,17,39.1,37.5C223.9-184.7,226.5-184.7,226.4-186.4z"/>
				</g>
				<rect x="144.3" y="-186.4" class="st3" width="80.8" height="1.6"/>
				<g>
					<path class="st4" d="M174-186.9c0,5.9,4.8,10.7,10.7,10.7c5.9,0,10.7-4.8,10.7-10.7c0-5.9-4.8-10.7-10.7-10.7
						C178.8-197.7,174-192.8,174-186.9z"/>
					<path class="st3" d="M172.7-186.9c0.2,6.7,5.3,11.8,12,12c6.7,0.2,11.8-5.7,12-12c0.2-6.7-5.7-11.8-12-12
						C178.1-199.2,172.9-193.3,172.7-186.9c-0.1,1.7,2.5,1.7,2.6,0c0.2-5.3,4.2-9.3,9.5-9.5c5.3-0.2,9.3,4.4,9.5,9.5
						c0.2,5.3-4.4,9.3-9.5,9.5c-5.3,0.2-9.3-4.4-9.5-9.5C175.3-188.6,172.7-188.6,172.7-186.9z"/>
				</g>
				<path class="st3" d="M178.5-186.9c0,3.4,2.8,6.2,6.2,6.2c3.4,0,6.2-2.8,6.2-6.2c0-3.4-2.8-6.2-6.2-6.2
					C181.3-193.1,178.5-190.4,178.5-186.9z"/>
			</g>
			<rect x="243.4" y="-246.7" class="st1" width="123.8" height="123.8"/>
			<g>
				<g>
					<circle class="st2" cx="305.3" cy="-184.8" r="40.4"/>
					<path class="st3" d="M347.1-184.8c-0.2-23.4-19.7-42.3-43.2-41.7c-23.4,0.6-41.6,21.5-40.2,44.6c1.4,22.3,21,39.4,43.1,38.8
						C329.1-143.7,346.9-162.7,347.1-184.8c0-1.7-2.6-1.7-2.6,0c-0.1,12.1-5.6,23.2-15,30.8c-9.5,7.7-22.6,10-34.3,7
						c-11.5-3-20.8-11.4-25.7-22.1c-5.1-11.2-4.1-24.5,1.8-35.1c8.7-15.5,27.2-22.8,44.2-18.4c17,4.4,28.8,20.4,29,37.8
						C344.5-183.1,347.1-183.1,347.1-184.8z"/>
				</g>
				<g>
					<path class="st4" d="M265-183.1c0.8,21.6,18.6,38.8,40.4,38.8c21.8,0,39.5-17.2,40.4-38.8H265z"/>
					<path class="st3" d="M263.7-183.1c1.1,22.2,19.4,39.9,41.7,40.1c22.3,0.2,40.6-18.2,41.7-40.1c0-0.7-0.6-1.3-1.3-1.3
						c-25.3,0-50.6,0-75.9,0c-1.6,0-3.2,0-4.8,0c-1.7,0-1.7,2.6,0,2.6c25.3,0,50.6,0,75.9,0c1.6,0,3.2,0,4.8,0
						c-0.4-0.4-0.9-0.9-1.3-1.3c-1,20.8-18.3,37.3-39.1,37.5c-20.8,0.2-38.1-17-39.1-37.5C266.2-184.8,263.6-184.8,263.7-183.1z"/>
				</g>
				<rect x="265" y="-184.8" class="st3" width="80.8" height="1.6"/>
				<g>
					<path class="st4" d="M316.1-182.6c0-5.9-4.8-10.7-10.7-10.7c-5.9,0-10.7,4.8-10.7,10.7c0,5.9,4.8,10.7,10.7,10.7
						C311.3-171.8,316.1-176.7,316.1-182.6z"/>
					<path class="st3" d="M317.4-182.6c-0.2-6.7-5.3-11.8-12-12c-6.7-0.2-11.8,5.7-12,12c-0.2,6.7,5.7,11.8,12,12
						C312.1-170.3,317.2-176.2,317.4-182.6c0.1-1.7-2.5-1.7-2.6,0c-0.2,5.3-4.2,9.3-9.5,9.5c-5.3,0.2-9.3-4.4-9.5-9.5
						c-0.2-5.3,4.4-9.3,9.5-9.5c5.3-0.2,9.3,4.4,9.5,9.5C314.9-180.9,317.4-180.9,317.4-182.6z"/>
				</g>
				<path class="st3" d="M311.6-182.6c0-3.4-2.8-6.2-6.2-6.2c-3.4,0-6.2,2.8-6.2,6.2c0,3.4,2.8,6.2,6.2,6.2
					C308.8-176.3,311.6-179.1,311.6-182.6z"/>
			</g>
		</g>
		<g>
			<rect x="0" y="-246.7" class="st1" width="123.8" height="123.8"/>
		</g>
		<g>
			<rect x="366.3" y="-369.5" class="st1" width="123.8" height="123.8"/>
		</g>
		<g>
			<rect x="122.8" y="-369.5" class="st1" width="123.8" height="123.8"/>
			<g>
				<g>
					<path class="st2" d="M144.3-307.6c0,22.3,18.1,40.4,40.4,40.4c22.3,0,40.4-18.1,40.4-40.4S207.1-348,184.8-348
						C162.4-348,144.3-329.9,144.3-307.6z"/>
					<path class="st3" d="M143-307.6c0.2,23.4,19.7,42.3,43.2,41.7c23.4-0.6,41.6-21.5,40.2-44.6c-1.4-22.3-21-39.4-43.1-38.8
						C161-348.7,143.2-329.6,143-307.6c0,1.7,2.6,1.7,2.6,0c0.1-12.1,5.6-23.2,15-30.8c9.5-7.7,22.6-10,34.3-7
						c11.5,3,20.8,11.4,25.7,22.1c5.1,11.2,4.1,24.5-1.8,35.1c-8.7,15.5-27.2,22.8-44.2,18.4c-17-4.4-28.8-20.4-29-37.8
						C145.6-309.2,143-309.2,143-307.6z"/>
				</g>
				<rect x="144.3" y="-309.2" class="st3" width="80.8" height="1.6"/>
				<g>
					<path class="st4" d="M174-309.7c0,5.9,4.8,10.7,10.7,10.7c5.9,0,10.7-4.8,10.7-10.7c0-5.9-4.8-10.7-10.7-10.7
						C178.8-320.5,174-315.7,174-309.7z"/>
					<path class="st3" d="M172.7-309.7c0.2,6.7,5.3,11.8,12,12c6.7,0.2,11.8-5.7,12-12c0.2-6.7-5.7-11.8-12-12
						C178.1-322,172.9-316.1,172.7-309.7c-0.1,1.7,2.5,1.7,2.6,0c0.2-5.3,4.2-9.3,9.5-9.5c5.3-0.2,9.3,4.4,9.5,9.5
						c0.2,5.3-4.4,9.3-9.5,9.5c-5.3,0.2-9.3-4.4-9.5-9.5C175.3-311.4,172.7-311.4,172.7-309.7z"/>
				</g>
				<path class="st3" d="M178.5-309.7c0,3.4,2.8,6.2,6.2,6.2c3.4,0,6.2-2.8,6.2-6.2c0-3.4-2.8-6.2-6.2-6.2
					C181.3-316,178.5-313.2,178.5-309.7z"/>
			</g>
			<rect x="243.4" y="-369.5" class="st1" width="123.8" height="123.8"/>
			<g>
				<g>
					<circle class="st2" cx="305.3" cy="-307.6" r="40.4"/>
					<path class="st3" d="M347.1-307.6c-0.2-23.4-19.7-42.3-43.2-41.7c-23.4,0.6-41.6,21.5-40.2,44.6c1.4,22.3,21,39.4,43.1,38.8
						C329.1-266.5,346.9-285.5,347.1-307.6c0-1.7-2.6-1.7-2.6,0c-0.1,12.1-5.6,23.2-15,30.8c-9.5,7.7-22.6,10-34.3,7
						c-11.5-3-20.8-11.4-25.7-22.1c-5.1-11.2-4.1-24.5,1.8-35.1c8.7-15.5,27.2-22.8,44.2-18.4c17,4.4,28.8,20.4,29,37.8
						C344.5-305.9,347.1-305.9,347.1-307.6z"/>
				</g>
				<g>
					<path class="st4" d="M265-306c0.8,21.6,18.6,38.8,40.4,38.8c21.8,0,39.5-17.2,40.4-38.8H265z"/>
					<path class="st3" d="M263.7-306c1.1,22.2,19.4,39.9,41.7,40.1C327.6-265.7,346-284,347-306c0-0.7-0.6-1.3-1.3-1.3
						c-25.3,0-50.6,0-75.9,0c-1.6,0-3.2,0-4.8,0c-1.7,0-1.7,2.6,0,2.6c25.3,0,50.6,0,75.9,0c1.6,0,3.2,0,4.8,0
						c-0.4-0.4-0.9-0.9-1.3-1.3c-1,20.8-18.3,37.3-39.1,37.5c-20.8,0.2-38.1-17-39.1-37.5C266.2-307.6,263.6-307.6,263.7-306z"/>
				</g>
				<rect x="265" y="-307.6" class="st3" width="80.8" height="1.6"/>
				<g>
					<path class="st4" d="M316.1-305.4c0-5.9-4.8-10.7-10.7-10.7c-5.9,0-10.7,4.8-10.7,10.7c0,5.9,4.8,10.7,10.7,10.7
						C311.3-294.7,316.1-299.5,316.1-305.4z"/>
					<path class="st3" d="M317.4-305.4c-0.2-6.7-5.3-11.8-12-12c-6.7-0.2-11.8,5.7-12,12c-0.2,6.7,5.7,11.8,12,12
						C312.1-293.2,317.2-299,317.4-305.4c0.1-1.7-2.5-1.7-2.6,0c-0.2,5.3-4.2,9.3-9.5,9.5c-5.3,0.2-9.3-4.4-9.5-9.5
						c-0.2-5.3,4.4-9.3,9.5-9.5c5.3-0.2,9.3,4.4,9.5,9.5C314.9-303.8,317.4-303.8,317.4-305.4z"/>
				</g>
				<path class="st3" d="M311.6-305.4c0-3.4-2.8-6.2-6.2-6.2c-3.4,0-6.2,2.8-6.2,6.2c0,3.4,2.8,6.2,6.2,6.2
					C308.8-299.2,311.6-302,311.6-305.4z"/>
			</g>
		</g>
		<g>
			<rect x="0" y="-369.5" class="st1" width="123.8" height="123.8"/>
		</g>
	</g>
</pattern>
<g>
	<rect class="st5" width="1792" height="1112"/>
</g>
<g>
	<rect x="0.5" class="st6" width="1791.5" height="1112"/>
</g>
<radialGradient id="SVGID_1_" cx="700.206" cy="489.9562" r="604.1926" gradientTransform="matrix(1.28 0 0 1.1347 1.000000e-04 4.670000e-02)" gradientUnits="userSpaceOnUse">
	<stop  offset="7.905180e-02" style="stop-color:#FDFBE5"/>
	<stop  offset="0.4446" style="stop-color:#013765"/>
	<stop  offset="0.6438" style="stop-color:#083764"/>
	<stop  offset="0.8036" style="stop-color:#1A3560"/>
	<stop  offset="0.9495" style="stop-color:#2B3159"/>
	<stop  offset="0.9881" style="stop-color:#302F57"/>
</radialGradient>
<rect x="0.3" class="st7" width="1792" height="1112"/>
</svg>
